PathFileType	4	(X/Y/Z)	C:\Documents and Settings\user\My Documents\MotionFiles\BioEngCompLab_Data\Delaware\Subject 2\Static1_smoothed.trc
DataRate	CameraRate	NumFrames	NumMarkers	Units	OrigDataRate	OrigDataStartFrame	OrigNumFrames
60.00	60.00	       4	49	mm	60.00	151	       300
Frame#	Time	R.ASIS			L.ASIS			V.Sacral			R.Thigh.Upper			R.Thigh.Front			R.Thigh.Rear			L.Thigh.Upper			L.Thigh.Front			L.Thigh.Rear			R.Knee.Lat			R.Knee.Med			L.Knee.Lat			L.Knee.Med			R.Shank.Upper			R.Shank.Front			R.Shank.Rear			L.Shank.Upper			L.Shank.Front			L.Shank.Rear			R.Ankle.Lat			R.Ankle.Med			L.Ankle.Lat			L.Ankle.Med			R.Heel			R.Midfoot.Sup			R.Midfoot.Lat			R.Toe.Tip			L.Heel			L.Midfoot.Sup			L.Midfoot.Lat			L.Toe.Tip			Sternum			R.Acromium			L.Acromium			R.Bicep			L.Bicep			R.Elbow			L.Elbow			R.Wrist.Med			R.Wrist.Lat			L.Wrist.Med			L.Wrist.Lat			R.Toe.Lat			R.Toe.Med			L.Toe.Lat			L.Toe.Med			R.Temple			L.Temple			Top.Head			
		X1	Y1	Z1	X2	Y2	Z2	X3	Y3	Z3	X4	Y4	Z4	X5	Y5	Z5	X6	Y6	Z6	X7	Y7	Z7	X8	Y8	Z8	X9	Y9	Z9	X10	Y10	Z10	X11	Y11	Z11	X12	Y12	Z12	X13	Y13	Z13	X14	Y14	Z14	X15	Y15	Z15	X16	Y16	Z16	X17	Y17	Z17	X18	Y18	Z18	X19	Y19	Z19	X20	Y20	Z20	X21	Y21	Z21	X22	Y22	Z22	X23	Y23	Z23	X24	Y24	Z24	X25	Y25	Z25	X26	Y26	Z26	X27	Y27	Z27	X28	Y28	Z28	X29	Y29	Z29	X30	Y30	Z30	X31	Y31	Z31	X32	Y32	Z32	X33	Y33	Z33	X34	Y34	Z34	X35	Y35	Z35	X36	Y36	Z36	X37	Y37	Z37	X38	Y38	Z38	X39	Y39	Z39	X40	Y40	Z40	X41	Y41	Z41	X42	Y42	Z42	X43	Y43	Z43	X44	Y44	Z44	X45	Y45	Z45	X46	Y46	Z46	X47	Y47	Z47	X48	Y48	Z48	X49	Y49	Z49	

151	2.500000	622.504520	1070.326420	165.227250	613.706360	1062.954590	-87.762600	419.392330	1065.106200	36.053860	543.117430	761.383360	218.727660	609.598020	697.440860	159.284120	510.537810	667.059140	214.895920	552.140630	763.860780	-146.392560	612.943790	690.619450	-75.069890	530.250000	634.861270	-134.679720	490.827850	543.659670	199.676940	497.198120	526.751890	72.364730	484.592650	548.185420	-118.684330	514.856690	525.167970	-2.628830	481.965850	461.413510	210.665340	531.410890	389.876250	166.913450	469.054690	379.012880	219.913910	460.739230	451.049990	-137.564740	525.462460	371.440920	-100.111070	438.233950	383.016140	-143.121430	431.755830	104.343060	205.573470	451.259980	115.113720	122.034100	420.799470	104.429500	-126.278560	445.187650	109.510030	-37.531970	366.530430	75.537770	161.873280	509.957030	71.996540	129.365220	479.597200	64.863630	228.355770	646.527040	64.248570	166.253780	352.577030	71.561120	-89.868550	494.928100	66.151960	-49.957180	478.566220	54.207000	-151.598660	634.649170	62.417540	-93.771920	611.345640	1458.435420	28.418340	473.542420	1570.482060	211.557630	459.015010	1567.171880	-129.956940	438.605190	1487.565550	386.715580	436.440310	1481.878300	-333.794400	431.863220	1467.271730	489.229430	443.209750	1470.325560	-426.333890	545.751770	1522.341800	736.973510	479.140110	1533.760250	735.707700	576.635310	1497.129030	-661.159610	504.701510	1505.859380	-674.482670	573.793880	49.030630	242.128750	579.524720	39.527330	129.589580	555.576110	36.873380	-170.790950	568.658200	42.061680	-59.450620	575.344060	1701.529660	104.076340	585.110170	1714.668820	-38.075600	603.632870	1807.835570	26.973230	
152	2.517000	622.474180	1070.341190	165.244840	613.689700	1062.953250	-87.774890	419.392180	1065.076170	35.891360	543.118590	761.373960	218.722550	609.610720	697.454710	159.295000	510.570740	667.066350	214.902790	552.133970	763.873050	-146.390270	612.910220	690.635070	-75.105690	530.229980	634.855960	-134.671630	490.842620	543.656070	199.668410	497.278930	526.785100	72.341060	484.593050	548.185360	-118.684520	514.858030	525.168460	-2.627610	481.997010	461.409550	210.662260	531.404110	389.880710	166.914020	469.107570	378.997740	219.916610	460.713960	451.052920	-137.562650	525.500790	371.440890	-100.108450	438.255340	383.006650	-143.134170	431.748350	104.354740	205.581800	451.173650	115.066570	122.076320	420.788060	104.434680	-126.277590	445.146790	109.550790	-37.733230	366.573520	75.586180	161.882320	510.028530	72.041600	129.349290	479.575040	64.856230	228.358410	646.908140	64.301770	166.392490	352.627960	71.525250	-90.189800	494.878270	66.181700	-49.955240	478.565770	54.200140	-151.602660	634.649170	62.417540	-93.771920	611.287410	1458.418580	28.477210	473.492520	1570.491330	211.566570	458.900700	1567.159790	-129.919750	438.597990	1487.572510	386.716250	436.246400	1481.828740	-333.745910	431.922610	1467.281860	489.242160	443.100830	1470.317140	-426.275670	545.848750	1522.397220	737.094480	478.965790	1533.775630	735.836730	576.566280	1497.051760	-661.137330	504.606170	1505.779050	-674.517270	573.776120	49.040730	242.130430	579.583010	39.540420	129.599350	555.606810	36.932040	-170.767350	568.040220	41.767050	-59.671300	575.288640	1701.557130	104.110130	585.043700	1714.672360	-38.044260	603.510930	1807.894170	27.058540	
153	2.533000	622.435490	1070.329590	165.265180	613.675540	1062.948360	-87.786030	419.321870	1065.112060	35.885370	543.119020	761.370790	218.720870	609.619510	697.466800	159.295260	510.576200	667.061650	214.911120	552.136110	763.888610	-146.383790	612.819090	690.633540	-75.118550	530.173100	634.852600	-134.646270	490.848020	543.654790	199.665300	497.344540	526.812010	72.321390	484.593780	548.185240	-118.684870	514.847290	525.172610	-2.632930	482.031490	461.399720	210.660900	531.408020	389.877140	166.914230	469.200380	378.988220	219.920120	460.687840	451.055940	-137.560500	525.536440	371.448640	-100.120800	438.279330	382.998230	-143.146970	431.744260	104.361130	205.586350	451.090000	115.023060	122.091480	420.776950	104.436680	-126.274740	445.115910	109.563780	-37.833950	366.543000	75.565930	161.883620	510.050380	72.041550	129.343000	479.553890	64.819410	228.359680	647.393130	64.355710	166.565540	352.594300	71.433750	-90.332790	494.851100	66.197880	-49.954190	478.564360	54.180590	-151.614090	634.649170	62.417540	-93.771920	611.218750	1458.414920	28.528750	473.439540	1570.509770	211.573550	458.792180	1567.136720	-129.887590	438.597200	1487.609010	386.721770	436.062130	1481.792360	-333.697420	431.983090	1467.236940	489.259370	442.991940	1470.308840	-426.217470	545.892700	1522.305790	737.227420	478.834530	1533.744140	735.927000	576.487850	1496.975590	-661.109130	504.511540	1505.691770	-674.530030	573.730290	49.066820	242.134780	579.608400	39.511540	129.593540	555.627010	36.968720	-170.752810	567.742190	41.619110	-59.719510	575.252320	1701.561890	104.124750	584.946410	1714.675780	-37.989370	603.449460	1807.929690	27.125860	
154	2.550000	622.365360	1070.303470	165.294040	613.658750	1062.940920	-87.799630	419.207790	1065.174560	36.023300	543.119080	761.370970	218.720990	609.622310	697.477420	159.276060	510.549350	667.060240	214.896940	552.147460	763.911930	-146.374480	612.731930	690.621460	-75.118150	530.101870	634.853210	-134.618300	490.842800	543.656070	199.668320	497.373780	526.824040	72.312510	484.594700	548.185120	-118.685300	514.819580	525.181880	-2.647520	482.048580	461.400210	210.660420	531.415410	389.871060	166.914280	469.297030	378.992250	219.917770	460.660830	451.059080	-137.558260	525.554810	371.469790	-100.151270	438.292110	382.993320	-143.153640	431.744140	104.361320	205.586470	451.059780	115.009630	122.069600	420.790530	104.424670	-126.272210	445.100860	109.565600	-37.870030	366.443480	75.506160	161.892360	510.032900	72.006260	129.344390	479.526490	64.769350	228.357010	647.762210	64.396380	166.697710	352.521970	71.323890	-90.363550	494.861630	66.191560	-49.954590	478.563720	54.161650	-151.625120	634.649170	62.417540	-93.771920	611.159420	1458.420900	28.558240	473.400480	1570.527470	211.584350	458.683960	1567.105470	-129.859880	438.624150	1487.694580	386.735380	435.897400	1481.766600	-333.651820	432.043550	1467.191410	489.287870	442.883090	1470.300290	-426.159390	545.868100	1522.058110	737.356020	478.811830	1533.660160	735.979060	576.424680	1496.918330	-661.081970	504.404110	1505.607180	-674.521550	573.678410	49.096340	242.139690	579.594420	39.465010	129.578580	555.628970	36.969020	-170.753110	567.700200	41.594330	-59.693060	575.229920	1701.547120	104.125200	584.837220	1714.681520	-37.922380	603.414060	1807.945920	27.190180	
